<?xml version="1.0" standalone="no"?><!DOCTYPE svg PUBLIC "-//W3C//DTD SVG 1.1//EN" "http://www.w3.org/Graphics/SVG/1.1/DTD/svg11.dtd"><svg height="1125" node-id="1" sillyvg="true" template-height="1125" template-width="1408" version="1.1" viewBox="0 0 1408 1125" width="1408" xmlns="http://www.w3.org/2000/svg" xmlns:xlink="http://www.w3.org/1999/xlink"><defs node-id="38"></defs><path d="M 194.35 1118.00 C 167.41 1118.00 145.50 1096.09 145.50 1069.15 L 145.50 508.35 C 145.50 481.41 167.41 459.50 194.35 459.50 L 1199.65 459.50 C 1226.59 459.50 1248.50 481.41 1248.50 508.35 L 1248.50 1069.15 C 1248.50 1096.09 1226.59 1118.00 1199.65 1118.00 L 194.35 1118.00 Z" fill="#ffffff" fill-rule="nonzero" node-id="40" stroke="none" target-height="658.5" target-width="1103" target-x="145.5" target-y="459.5"></path><path d="M 1199.65 466.50 C 1222.73 466.50 1241.50 485.27 1241.50 508.35 L 1241.50 1069.15 C 1241.50 1092.23 1222.73 1111.00 1199.65 1111.00 L 194.35 1111.00 C 171.27 1111.00 152.50 1092.23 152.50 1069.15 L 152.50 508.35 C 152.50 485.27 171.27 466.50 194.35 466.50 L 1199.65 466.50 Z M 1199.65 452.50 L 194.35 452.50 C 163.63 452.50 138.50 477.63 138.50 508.35 L 138.50 1069.15 C 138.50 1099.87 163.63 1125.00 194.35 1125.00 L 1199.65 1125.00 C 1230.37 1125.00 1255.50 1099.87 1255.50 1069.15 L 1255.50 508.35 C 1255.50 477.63 1230.37 452.50 1199.65 452.50 Z" fill="#000000" fill-rule="nonzero" node-id="42" stroke="none" target-height="672.5" target-width="1117" target-x="138.5" target-y="452.5"></path><path d="M 931.00 459.00 L 919.00 459.00 L 919.00 1125.00 L 931.00 1125.00 L 931.00 459.00 Z" fill="#ffffff" fill-rule="nonzero" node-id="44" stroke="none" target-height="666" target-width="12" target-x="919" target-y="459"></path><path d="M 931.00 459.00 L 919.00 459.00 L 919.00 1125.00 L 931.00 1125.00 L 931.00 459.00 Z" fill="#000000" fill-rule="nonzero" node-id="46" stroke="none" target-height="666" target-width="12" target-x="919" target-y="459"></path><path d="M 312.00 710.00 C 331.88 710.00 348.00 693.88 348.00 674.00 C 348.00 654.12 331.88 638.00 312.00 638.00 C 292.12 638.00 276.00 654.12 276.00 674.00 C 276.00 693.88 292.12 710.00 312.00 710.00 Z" fill="#315bf4" fill-rule="nonzero" node-id="48" stroke="none" target-height="72" target-width="72" target-x="276" target-y="638"></path><path d="M 312.00 918.00 C 331.88 918.00 348.00 901.88 348.00 882.00 C 348.00 862.12 331.88 846.00 312.00 846.00 C 292.12 846.00 276.00 862.12 276.00 882.00 C 276.00 901.88 292.12 918.00 312.00 918.00 Z" fill="#315bf4" fill-rule="nonzero" node-id="50" stroke="none" target-height="72" target-width="72" target-x="276" target-y="846"></path><path d="M 426.00 652.00 L 776.00 652.00 C 782.05 652.00 787.00 656.95 787.00 663.00 C 787.00 669.05 782.05 674.00 776.00 674.00 L 426.00 674.00 C 419.95 674.00 415.00 669.05 415.00 663.00 C 415.00 656.95 419.95 652.00 426.00 652.00 Z" fill="#ff3f08" fill-rule="nonzero" node-id="52" stroke="none" target-height="22" target-width="372" target-x="415" target-y="652"></path><path d="M 426.00 728.00 L 645.00 728.00 C 651.05 728.00 656.00 732.95 656.00 739.00 C 656.00 745.05 651.05 750.00 645.00 750.00 L 426.00 750.00 C 419.95 750.00 415.00 745.05 415.00 739.00 C 415.00 732.95 419.95 728.00 426.00 728.00 Z" fill="#315bf4" fill-rule="nonzero" node-id="54" stroke="none" target-height="22" target-width="241" target-x="415" target-y="728"></path><path d="M 426.00 857.00 L 760.00 857.00 C 766.05 857.00 771.00 861.95 771.00 868.00 C 771.00 874.05 766.05 879.00 760.00 879.00 L 426.00 879.00 C 419.95 879.00 415.00 874.05 415.00 868.00 C 415.00 861.95 419.95 857.00 426.00 857.00 Z" fill="#315bf4" fill-rule="nonzero" node-id="56" stroke="none" target-height="22" target-width="356" target-x="415" target-y="857"></path><path d="M 426.00 933.00 L 674.00 933.00 C 680.05 933.00 685.00 937.95 685.00 944.00 C 685.00 950.05 680.05 955.00 674.00 955.00 L 426.00 955.00 C 419.95 955.00 415.00 950.05 415.00 944.00 C 415.00 937.95 419.95 933.00 426.00 933.00 Z" fill="#315bf4" fill-rule="nonzero" node-id="58" stroke="none" target-height="22" target-width="270" target-x="415" target-y="933"></path><path d="M 1013.00 1112.00 L 981.00 1112.00 C 974.40 1112.00 969.00 1106.60 969.00 1100.00 L 969.00 896.00 C 969.00 889.40 974.40 884.00 981.00 884.00 L 1013.00 884.00 C 1019.60 884.00 1025.00 889.40 1025.00 896.00 L 1025.00 1100.00 C 1025.00 1106.60 1019.60 1112.00 1013.00 1112.00 Z" fill="#315bf4" fill-rule="nonzero" node-id="60" stroke="none" target-height="228" target-width="56" target-x="969" target-y="884"></path><path d="M 1196.00 1112.00 L 1164.00 1112.00 C 1157.40 1112.00 1152.00 1106.60 1152.00 1100.00 L 1152.00 796.00 C 1152.00 789.40 1157.40 784.00 1164.00 784.00 L 1196.00 784.00 C 1202.60 784.00 1208.00 789.40 1208.00 796.00 L 1208.00 1100.00 C 1208.00 1106.60 1202.60 1112.00 1196.00 1112.00 Z" fill="#315bf4" fill-rule="nonzero" node-id="62" stroke="none" target-height="328" target-width="56" target-x="1152" target-y="784"></path><path d="M 1105.00 1112.00 L 1073.00 1112.00 C 1066.40 1112.00 1061.00 1106.60 1061.00 1100.00 L 1061.00 725.00 C 1061.00 718.40 1066.40 713.00 1073.00 713.00 L 1105.00 713.00 C 1111.60 713.00 1117.00 718.40 1117.00 725.00 L 1117.00 1100.00 C 1117.00 1106.60 1111.60 1112.00 1105.00 1112.00 Z" fill="#ff3f08" fill-rule="nonzero" node-id="64" stroke="none" target-height="399" target-width="56" target-x="1061" target-y="713"></path><path d="M 919.00 1111.50 L 195.42 1111.50 C 171.54 1111.50 152.00 1091.96 152.00 1068.08 L 152.00 1036.50 L 919.00 1036.50 L 919.00 1111.50 Z" fill="#315bf4" fill-rule="nonzero" node-id="66" stroke="none" target-height="75" target-width="767" target-x="152" target-y="1036.5"></path><path d="M 1257.00 593.00 L 1049.00 589.00 L 936.00 343.00 L 1257.00 536.00 L 1257.00 593.00 Z" fill="#1e294a" fill-rule="nonzero" node-id="68" stroke="none" target-height="250" target-width="321" target-x="936" target-y="343"></path><path d="M 1073.00 543.00 L 866.00 224.00 L 1183.00 224.00 L 1394.00 545.00 L 1073.00 543.00 Z" fill="#ffffff" fill-rule="nonzero" node-id="70" stroke="#000000" stroke-linecap="butt" stroke-width="14" target-height="321" target-width="528" target-x="866" target-y="224"></path><path d="M 985.00 298.00 C 989.00 313.00 1003.09 327.90 1023.00 326.00 C 1044.00 324.00 1046.21 305.79 1044.00 297.00 C 1041.16 285.70 1034.00 271.00 1008.00 271.00 C 990.00 271.00 982.67 289.27 985.00 298.00 Z" fill="none" node-id="72" stroke="#315bf4" stroke-linecap="butt" stroke-width="14" target-height="56.895996" target-width="63.536987" target-x="982.673" target-y="271"></path><path d="M 1031.00 376.00 L 1067.00 407.00" fill="none" node-id="74" stroke="#ff3f08" stroke-linecap="round" stroke-width="14" target-height="31" target-width="36" target-x="1031" target-y="376"></path><path d="M 1076.00 337.00 L 1067.00 407.00" fill="none" node-id="76" stroke="#ff3f08" stroke-linecap="round" stroke-width="14" target-height="70" target-width="9" target-x="1067" target-y="337"></path><path d="M 1068.00 454.00 L 1104.00 485.00" fill="none" node-id="78" stroke="#ff3f08" stroke-linecap="round" stroke-width="14" target-height="31" target-width="36" target-x="1068" target-y="454"></path><path d="M 1113.00 415.00 L 1104.00 485.00" fill="none" node-id="80" stroke="#ff3f08" stroke-linecap="round" stroke-width="14" target-height="70" target-width="9" target-x="1104" target-y="415"></path><path d="M 1073.00 291.00 C 1071.78 288.06 1073.00 282.00 1083.00 282.00 C 1093.00 282.00 1154.00 280.00 1154.00 280.00 C 1154.00 280.00 1174.00 279.00 1178.00 289.00 C 1182.00 299.00 1175.00 306.00 1150.00 308.00 C 1125.00 310.00 1112.10 309.19 1099.00 308.00 C 1088.00 307.00 1078.00 303.00 1073.00 291.00 Z" fill="#315bf4" fill-rule="nonzero" node-id="82" stroke="none" target-height="31" target-width="110.21997" target-x="1071.78" target-y="279"></path><path d="M 1115.00 375.00 C 1113.78 372.06 1115.00 366.00 1125.00 366.00 C 1135.00 366.00 1196.00 364.00 1196.00 364.00 C 1196.00 364.00 1216.00 363.00 1220.00 373.00 C 1224.00 383.00 1217.00 390.00 1192.00 392.00 C 1167.00 394.00 1154.10 393.19 1141.00 392.00 C 1130.00 391.00 1120.00 387.00 1115.00 375.00 Z" fill="#315bf4" fill-rule="nonzero" node-id="84" stroke="none" target-height="31" target-width="110.21997" target-x="1113.78" target-y="363"></path><path d="M 1156.00 459.00 C 1154.78 456.06 1156.00 450.00 1166.00 450.00 C 1176.00 450.00 1237.00 448.00 1237.00 448.00 C 1237.00 448.00 1257.00 447.00 1261.00 457.00 C 1265.00 467.00 1258.00 474.00 1233.00 476.00 C 1208.00 478.00 1195.10 477.19 1182.00 476.00 C 1171.00 475.00 1161.00 471.00 1156.00 459.00 Z" fill="#315bf4" fill-rule="nonzero" node-id="86" stroke="none" target-height="31" target-width="110.21997" target-x="1154.78" target-y="447"></path><path d="M 136.00 578.00 L 819.00 599.00 L 906.82 353.33 L 136.00 540.00 L 136.00 578.00 Z" fill="#1e294a" fill-rule="nonzero" node-id="88" stroke="none" target-height="245.66898" target-width="770.824" target-x="136" target-y="353.332"></path><path d="M 9.00 552.00 L 250.00 197.00 L 980.00 209.00 L 799.00 566.00 L 1.00 551.00" fill="#ffffff" fill-rule="nonzero" node-id="90" stroke="none" target-height="369" target-width="979" target-x="1" target-y="197"></path><path d="M 9.00 552.00 L 250.00 197.00 L 980.00 209.00 L 799.00 566.00 L 1.00 551.00" fill="none" node-id="92" stroke="#000000" stroke-linecap="butt" stroke-width="14" target-height="369" target-width="979" target-x="1" target-y="197"></path><path d="M 774.00 343.00 C 800.51 343.00 822.00 321.51 822.00 295.00 C 822.00 268.49 800.51 247.00 774.00 247.00 C 747.49 247.00 726.00 268.49 726.00 295.00 C 726.00 321.51 747.49 343.00 774.00 343.00 Z" fill="#ff3f08" fill-rule="nonzero" node-id="94" stroke="none" target-height="96" target-width="96" target-x="726" target-y="247"></path><path d="M 23.00 544.00 C 23.00 544.00 217.94 308.56 322.00 389.00 C 374.25 429.39 394.00 542.00 394.00 542.00 C 394.00 542.00 599.00 338.00 697.00 343.00 C 795.00 348.00 795.00 559.00 795.00 559.00 L 23.00 544.00 Z" fill="#315bf4" fill-rule="nonzero" node-id="96" stroke="none" target-height="250.44098" target-width="772" target-x="23" target-y="308.56"></path><path d="M 535.00 1097.00 C 547.70 1097.00 558.00 1086.70 558.00 1074.00 C 558.00 1061.30 547.70 1051.00 535.00 1051.00 C 522.30 1051.00 512.00 1061.30 512.00 1074.00 C 512.00 1086.70 522.30 1097.00 535.00 1097.00 Z" fill="#ffffff" fill-rule="nonzero" node-id="98" stroke="none" target-height="46" target-width="46" target-x="512" target-y="1051"></path><path d="M 679.50 202.00 L 571.67 202.00 L 506.00 261.00 C 505.00 239.00 506.00 214.00 505.75 200.92 C 475.83 195.35 453.00 168.96 453.00 137.50 L 453.00 64.50 C 453.00 29.02 482.02 0.00 517.50 0.00 L 679.50 0.00 C 714.98 0.00 744.00 29.02 744.00 64.50 L 744.00 137.50 C 744.00 172.97 714.98 202.00 679.50 202.00 Z" fill="#d2e9fe" fill-rule="nonzero" node-id="100" stroke="none" target-height="261" target-width="291" target-x="453" target-y="0"></path><path d="M 918.00 297.00 L 827.00 224.00 L 581.00 224.00 C 574.40 224.00 569.00 218.60 569.00 212.00 L 569.00 58.00 C 569.00 51.40 574.40 46.00 581.00 46.00 L 907.00 46.00 C 913.60 46.00 919.00 51.40 919.00 58.00 L 919.00 212.00 C 919.00 218.60 919.00 278.00 918.00 297.00 Z" fill="#315bf4" fill-rule="nonzero" node-id="102" stroke="none" target-height="251" target-width="350" target-x="569" target-y="46"></path><path d="M 651.00 157.00 C 665.36 157.00 677.00 145.36 677.00 131.00 C 677.00 116.64 665.36 105.00 651.00 105.00 C 636.64 105.00 625.00 116.64 625.00 131.00 C 625.00 145.36 636.64 157.00 651.00 157.00 Z" fill="#ffffff" fill-rule="nonzero" node-id="104" stroke="none" target-height="52" target-width="52" target-x="625" target-y="105"></path><path d="M 747.00 157.00 C 761.36 157.00 773.00 145.36 773.00 131.00 C 773.00 116.64 761.36 105.00 747.00 105.00 C 732.64 105.00 721.00 116.64 721.00 131.00 C 721.00 145.36 732.64 157.00 747.00 157.00 Z" fill="#ffffff" fill-rule="nonzero" node-id="106" stroke="none" target-height="52" target-width="52" target-x="721" target-y="105"></path><path d="M 847.00 157.00 C 861.36 157.00 873.00 145.36 873.00 131.00 C 873.00 116.64 861.36 105.00 847.00 105.00 C 832.64 105.00 821.00 116.64 821.00 131.00 C 821.00 145.36 832.64 157.00 847.00 157.00 Z" fill="#ffffff" fill-rule="nonzero" node-id="108" stroke="none" target-height="52" target-width="52" target-x="821" target-y="105"></path></svg>