<?xml version="1.0" standalone="no"?><!DOCTYPE svg PUBLIC "-//W3C//DTD SVG 1.1//EN" "http://www.w3.org/Graphics/SVG/1.1/DTD/svg11.dtd"><svg t="1712382597262" class="icon" viewBox="0 0 1034 1024" version="1.1" xmlns="http://www.w3.org/2000/svg" p-id="11796" xmlns:xlink="http://www.w3.org/1999/xlink" width="201.953125" height="200"><path d="M0 198.171106m101.870246-27.094154l541.367591-143.986074q101.870246-27.094154 128.9644 74.776091l143.986074 541.367592q27.094154 101.870246-74.776091 128.9644l-541.367592 143.986074q-101.870246 27.094154-128.9644-74.776092l-143.986074-541.367591q-27.094154-101.870246 74.776092-128.9644Z" fill="#0F62FE" p-id="11797"></path><path d="M263.529412 252.988235m150.588235 0l469.835294 0q150.588235 0 150.588235 150.588236l0 469.835294q0 150.588235-150.588235 150.588235l-469.835294 0q-150.588235 0-150.588235-150.588235l0-469.835294q0-150.588235 150.588235-150.588236Z" fill="#C1D0FF" fill-opacity=".4" p-id="11798"></path><path d="M428.653929 730.724894a15.061835 15.061835 0 0 0-4.460423 9.476518l-10.032188 118.016c-0.627953 7.3984 5.520565 13.601129 12.924988 13.031906l116.877553-8.964518a15.067859 15.067859 0 0 0 9.392188-4.263153l324.002635-317.744188c8.905788-8.735624 9.045835-23.036988 0.310212-31.942777l-93.137318-94.974494c-8.735624-8.907294-23.036988-9.045835-31.942776-0.311717l-49.329694 48.37647 63.332894 64.582777c8.574494 8.744659 8.437459 22.785506-0.3072 31.36-8.744659 8.576-22.784 8.438965-31.36-0.3072l-63.331388-64.581271-242.939483 238.245647z" fill="#FFFFFF" p-id="11799"></path></svg>