<?xml version="1.0" standalone="no"?><!DOCTYPE svg PUBLIC "-//W3C//DTD SVG 1.1//EN" "http://www.w3.org/Graphics/SVG/1.1/DTD/svg11.dtd"><svg t="1712389728326" class="icon" viewBox="0 0 1024 1024" version="1.1" xmlns="http://www.w3.org/2000/svg" p-id="19310" xmlns:xlink="http://www.w3.org/1999/xlink" width="200" height="200"><path d="M431.633157 718.786596h166.151675v74.045855h-166.151675z" fill="#C0EAFF" p-id="19311"></path><path d="M603.202822 729.622575h-176.987654c-5.417989 0-10.835979-1.805996-14.447972-7.223986-1.805996-3.611993-3.611993-7.223986-3.611993-10.835979-1.805996-3.611993-9.029982-27.089947-66.82187-111.971781-27.089947-41.537919-61.40388-130.031746-45.149911-209.495591 1.805996-9.029982 12.641975-16.253968 21.671957-14.447972 9.029982 1.805996 16.253968 12.641975 14.447972 21.671958-14.447972 66.821869 16.253968 146.285714 39.731922 180.599647 41.537919 63.209877 59.597884 95.717813 66.82187 111.971782h151.703704c7.223986-18.059965 25.283951-50.567901 66.821869-111.971782 32.507937-46.955908 63.209877-148.091711 27.089947-213.107584-25.283951-48.761905-83.075838-74.045855-169.763668-74.045855h-1.805997c-55.985891 0-101.135802 10.835979-131.837742 32.507937-9.029982 5.417989-19.865961 3.611993-25.283951-5.41799-5.417989-9.029982-3.611993-19.865961 5.41799-25.28395 36.119929-25.283951 86.687831-37.925926 149.897707-37.925926h3.611993c101.135802 0 169.763668 32.507937 202.271605 92.10582 45.149912 84.881834 5.417989 198.659612-28.895944 251.033509-57.791887 84.881834-65.015873 108.359788-66.821869 111.971782 0 3.611993-1.805996 7.223986-3.611993 10.835979-3.611993 7.223986-9.029982 9.029982-14.447972 9.029982z m18.059965-21.671958z m0 0z m0 0z m-213.107584 0z m213.107584 0z m-213.107584 0z" fill="#1F87DD" p-id="19312"></path><path d="M605.008818 819.922399h-178.79365c-10.835979 0-18.059965-7.223986-18.059965-18.059965v-90.299824c0-10.835979 7.223986-18.059965 18.059965-18.059964h178.79365c10.835979 0 18.059965 7.223986 18.059965 18.059964v90.299824c0 9.029982-9.029982 18.059965-18.059965 18.059965z m-160.733686-36.11993h142.673722v-54.179894h-142.673722v54.179894zM577.918871 874.102293h-126.419753c-10.835979 0-18.059965-7.223986-18.059965-18.059965s7.223986-18.059965 18.059965-18.059965h126.419753c10.835979 0 18.059965 7.223986 18.059965 18.059965s-7.223986 18.059965-18.059965 18.059965z" fill="#1F87DD" p-id="19313"></path><path d="M512.902998 722.398589c-10.835979 0-18.059965-7.223986-18.059964-18.059965V507.485009L469.559083 529.156966c-3.611993 3.611993-9.029982 5.417989-16.253968 3.611993-5.417989-1.805996-10.835979-5.417989-12.641976-9.029982l-39.731922-77.657848c-3.611993-9.029982 0-19.865961 7.223986-23.477954 9.029982-3.611993 19.865961 0 23.477954 7.223985l28.895944 57.791888 37.925925-32.507937c5.417989-5.417989 12.641975-5.417989 19.865962-3.611993 7.223986 3.611993 10.835979 9.029982 10.835978 16.253968V704.338624c1.805996 10.835979-5.417989 18.059965-16.253968 18.059965zM570.694885 534.574956c-3.611993 0-5.417989 0-9.029982-1.805997-9.029982-5.417989-12.641975-16.253968-7.223986-23.477954l39.731923-77.657848c5.417989-9.029982 16.253968-12.641975 23.477954-7.223986 9.029982 5.417989 12.641975 16.253968 7.223986 23.477954L586.948854 523.738977c-3.611993 7.223986-9.029982 10.835979-16.253969 10.835979z" fill="#1F87DD" p-id="19314"></path><path d="M330.497354 245.61552c-5.417989 0-9.029982-1.805996-12.641975-5.417989l-27.089947-27.089947c-7.223986-7.223986-7.223986-18.059965 0-25.283951s18.059965-7.223986 25.283951 0l27.089947 27.089947c7.223986 7.223986 7.223986 18.059965 0 25.283951-3.611993 3.611993-7.223986 5.417989-12.641976 5.417989zM689.890653 263.675485c-5.417989 0-9.029982-1.805996-12.641976-5.417989-7.223986-7.223986-7.223986-18.059965 0-25.283951l27.089947-27.089947c7.223986-7.223986 18.059965-7.223986 25.283951 0 7.223986 7.223986 7.223986 18.059965 0 25.283951l-27.089947 27.089947c-3.611993 3.611993-7.223986 5.417989-12.641975 5.417989zM511.097002 223.943563c-10.835979 0-18.059965-7.223986-18.059965-18.059965V166.151675c0-10.835979 7.223986-18.059965 18.059965-18.059964s18.059965 7.223986 18.059964 18.059964v39.731923c0 10.835979-9.029982 18.059965-18.059964 18.059965z" fill="#1F87DD" p-id="19315"></path></svg>