<?xml version="1.0" standalone="no"?><!DOCTYPE svg PUBLIC "-//W3C//DTD SVG 1.1//EN" "http://www.w3.org/Graphics/SVG/1.1/DTD/svg11.dtd"><svg t="1712389892686" class="icon" viewBox="0 0 1024 1024" version="1.1" xmlns="http://www.w3.org/2000/svg" p-id="27679" xmlns:xlink="http://www.w3.org/1999/xlink" width="200" height="200"><path d="M511.6 513.8m-409.2 0a409.2 409.2 0 1 0 818.4 0 409.2 409.2 0 1 0-818.4 0Z" fill="#F9C56A" p-id="27680"></path><path d="M534.7 490.7m-386.1 0a386.1 386.1 0 1 0 772.2 0 386.1 386.1 0 1 0-772.2 0Z" fill="#FAE06B" p-id="27681"></path><path d="M209.2 424.5a119.3 144.2 0 1 0 238.6 0 119.3 144.2 0 1 0-238.6 0Z" fill="#793A08" p-id="27682"></path><path d="M226.3 424.5a102.2 123.5 0 1 0 204.4 0 102.2 123.5 0 1 0-204.4 0Z" fill="#FFFFFF" p-id="27683"></path><path d="M327.7 513.8m-53.4 0a53.4 53.4 0 1 0 106.8 0 53.4 53.4 0 1 0-106.8 0Z" fill="#793A08" p-id="27684"></path><path d="M575.4 424.5a119.3 144.2 0 1 0 238.6 0 119.3 144.2 0 1 0-238.6 0Z" fill="#793A08" p-id="27685"></path><path d="M592.4 424.5a102.3 123.6 0 1 0 204.6 0 102.3 123.6 0 1 0-204.6 0Z" fill="#FFFFFF" p-id="27686"></path><path d="M693.9 513.8m-53.4 0a53.4 53.4 0 1 0 106.8 0 53.4 53.4 0 1 0-106.8 0Z" fill="#793A08" p-id="27687"></path><path d="M511.6 69C265.9 69 66.8 268.1 66.8 513.8s199.1 444.8 444.8 444.8 444.7-199.2 444.7-444.8S757.2 69 511.6 69z m0 854c-226 0-409.2-183.2-409.2-409.2s183.2-409.2 409.2-409.2 409.2 183.2 409.2 409.2S737.5 923 511.6 923z" fill="#793A08" p-id="27688"></path><path d="M244.6 601a35.6 35.6 0 0 0-71.1 0zM847.2 601.9a35.6 35.6 0 0 0-71.1 0z" fill="#FBA783" p-id="27689"></path><path d="M725.1 638.3C690.4 722.1 607.8 781 511.5 781S332.7 722.1 298 638.3h-38.3c36.5 103.9 135.5 178.4 251.9 178.4s215.3-74.5 251.9-178.4z" fill="#793A08" p-id="27690"></path></svg>