<?xml version="1.0" standalone="no"?><!DOCTYPE svg PUBLIC "-//W3C//DTD SVG 1.1//EN" "http://www.w3.org/Graphics/SVG/1.1/DTD/svg11.dtd"><svg t="1712389818526" class="icon" viewBox="0 0 1024 1024" version="1.1" xmlns="http://www.w3.org/2000/svg" p-id="20522" xmlns:xlink="http://www.w3.org/1999/xlink" width="200" height="200"><path d="M403.022 808.821v44.303h42.11c20.927 0 38.095 17.36 38.095 38.56v1.096c0 7.158 2.664 14.85 8.05 19.814v0.529c5.354 4.964 12.33 7.725 19.305 7.725 7.502 0 14.202-3.295 19.832-8.254 5.387-5.527 7.8-12.117 7.8-19.814v-1.096c0-21.195 17.418-38.554 38.069-38.554h42.137v-44.303c-34.608 12.934-70.838 18.99-107.838 18.99-36.75 0-72.953-6.061-107.56-18.996z m233.087-94.383l1.622-1.13c15.823-10.169 30.566-22.29 43.976-36.044 45.592-46.501 70.81-109.8 70.81-175.325 0-66.6-25.218-128.796-70.81-175.298-45.593-46.53-106.742-72.655-171.125-72.655-64.382 0-125.526 26.126-170.874 72.655-45.592 46.502-71.082 108.699-71.082 175.298 0 65.525 25.484 128.824 71.082 175.325 13.409 13.753 28.185 25.875 44.003 36.044l1.345 1.13c37.797 23.393 81.524 35.481 125.532 35.481 44.518 0 87.42-12.088 125.52-35.481zM345.062 161.49c6.455 11.304 2.419 25.619-7.773 31.652-11.262 6.623-25.213 2.477-31.364-8.794l-36.23-63.86c-5.907-11.277-2.42-25.314 8.598-31.653 10.707-6.312 24.664-3.011 30.572 8.26l36.197 64.395zM201.575 292.234c10.713 6.59 14.478 20.91 8.321 31.363-6.45 11.304-20.13 15.417-31.12 8.821l-62.516-37.173c-10.708-6.59-14.473-20.91-8.294-31.903 6.428-10.736 20.103-14.877 31.093-8.254l62.516 37.146z m-60.894 186.312c12.606 0 22.798 10.208 22.798 22.859 0 13.218-10.192 23.954-22.798 23.954H68.519c-12.6 0-22.516-10.736-22.516-23.954 0-12.651 9.916-22.859 22.516-22.859h72.162z m38.095 192.941c10.99-6.34 24.67-2.198 31.12 8.26 6.157 11.27 2.392 25.585-8.321 31.93l-62.76 37.43c-10.74 6.59-24.416 2.193-30.85-8.822-6.178-10.992-2.413-24.75 8.848-31.368l61.963-37.43z m641.34 40.19c-11.266-6.345-15.026-20.66-8.57-31.93 6.422-10.458 19.858-14.6 30.843-8.26l62.489 37.43c10.74 6.617 14.5 20.376 8.321 31.368-6.178 11.015-19.859 15.411-30.849 8.822l-62.234-37.43z m60.368-186.318c-12.356 0-22.272-10.736-22.272-23.954 0-12.657 9.916-22.859 22.272-22.859h72.682c12.33 0 22.273 10.202 22.273 22.859 0 13.218-9.943 23.954-22.273 23.954h-72.682zM842.39 332.42c-10.985 6.06-24.421 2.482-30.844-8.822-6.455-10.987-2.695-25.308 8.571-31.363l62.234-37.146c10.99-6.628 24.67-2.482 30.85 8.254 6.178 11.276 2.418 25.313-8.322 31.903l-62.49 37.173z m-126.872-148.07c-6.455 11.27-20.38 15.416-31.12 8.793-10.984-6.033-14.478-20.348-8.044-31.652l35.953-64.396c5.88-11.276 20.108-14.855 31.093-8.26 10.74 6.34 14.228 20.377 8.044 32.215l-35.926 63.3z m-182.412-61.92c0 12.657-9.64 22.825-22.523 22.825-12.33 0-22.522-10.168-22.522-22.825V48.394c0-12.684 10.193-23.392 22.522-23.392 12.883 0 22.523 10.708 22.523 23.392v74.035z m-22.523 374.924c-6.455 4.675-12.883 8.821-19.858 11.298-13.952 5.777-28.706 8.516-43.179 8.516-14.749 0-29.254-2.739-42.657-8.516a105.991 105.991 0 0 1-36.474-25.057c-8.847-9.072-8.847-23.387 0-33.027 8.598-8.537 23.07-8.537 32.188 0 5.908 6.596 13.404 11.839 21.177 15.417 8.327 3.295 16.924 4.96 25.766 4.96 8.57 0 17.44-1.665 25.49-4.96 8.05-3.578 15.27-8.821 21.453-15.417 9.119-8.537 23.591-8.537 32.189 0 6.156 6.596 13.409 11.839 21.453 15.417 8.598 3.295 16.892 4.96 25.766 4.96 8.57 0 17.163-1.665 25.734-4.96 8.05-3.578 15.03-8.821 21.453-15.417 8.598-8.537 23.07-8.537 32.194 0 8.598 9.64 8.598 23.955 0 33.027-10.713 10.742-23.075 19.28-36.756 25.057-13.398 5.777-27.626 8.516-42.625 8.516-14.776 0-29.259-2.739-42.934-8.516-6.976-2.477-13.952-6.623-20.38-11.298zM694.063 768.38v123.303c0 22.006-16.642 39.054-37.57 39.054h-49.361c-5.354 13.786-12.85 26.153-23.32 36.611-19.305 20.098-45.592 31.653-73.23 31.653-27.355 0-53.642-11.27-72.953-31.369-10.214-10.742-18.236-23.109-23.623-36.895h-49.08c-20.656 0-37.824-17.048-37.824-39.054V768.38c-14.75-11.02-28.43-22.859-40.76-36.072-60.097-61.106-93.36-143.4-93.36-230.37 0-86.692 33.263-168.986 93.36-230.621 59.55-61.379 140-95.508 224.24-95.508 84.768 0 165.217 34.124 224.772 95.508 59.82 61.635 93.083 143.93 93.083 230.62 0 86.97-33.262 169.265-93.083 230.371-12.34 13.213-26.292 25.052-41.29 36.072z" fill="#1296db" p-id="20523"></path></svg>